<mxfile host="app.diagrams.net" modified="2024-02-24T21:35:17.700Z" agent="Mozilla/5.0 (Windows NT 10.0; Win64; x64) AppleWebKit/537.36 (KHTML, like Gecko) Chrome/121.0.0.0 Safari/537.36" version="23.1.6" etag="M0rnhAwgXxtAgQAeHFjh" type="github">
  <diagram name="Page-1" id="jqeV3gRvva8cN_hkV0Q2">
    <mxGraphModel>
      <root>
        <mxCell id="0" />
        <mxCell id="1" parent="0" />
      </root>
    </mxGraphModel>
  </diagram>
</mxfile>
